<mxfile host="app.diagrams.net" agent="Mozilla/5.0 (Macintosh; Intel Mac OS X 10_15_7) AppleWebKit/537.36 (KHTML, like Gecko) Chrome/128.0.0.0 Safari/537.36" version="24.7.14">
  <diagram name="Page-1" id="xl8lV4VHeHB_gj2C_gaf">
    <mxGraphModel dx="1103" dy="630" grid="1" gridSize="10" guides="1" tooltips="1" connect="1" arrows="1" fold="1" page="1" pageScale="1" pageWidth="850" pageHeight="1100" math="0" shadow="0">
      <root>
        <mxCell id="0" />
        <mxCell id="1" parent="0" />
        <mxCell id="O5suZDPZrE7tWehPOrh1-2" value="Database" style="shape=cylinder3;whiteSpace=wrap;html=1;boundedLbl=1;backgroundOutline=1;size=15;" vertex="1" parent="1">
          <mxGeometry x="690" y="260" width="120" height="160" as="geometry" />
        </mxCell>
        <mxCell id="O5suZDPZrE7tWehPOrh1-3" value="Arduino" style="rounded=0;whiteSpace=wrap;html=1;" vertex="1" parent="1">
          <mxGeometry x="60" y="310" width="120" height="60" as="geometry" />
        </mxCell>
        <mxCell id="O5suZDPZrE7tWehPOrh1-4" value="API (Can be cloud or in rbpi)" style="rounded=1;whiteSpace=wrap;html=1;" vertex="1" parent="1">
          <mxGeometry x="365" y="160" width="120" height="320" as="geometry" />
        </mxCell>
        <mxCell id="O5suZDPZrE7tWehPOrh1-5" value="" style="endArrow=classic;html=1;rounded=0;entryX=-0.017;entryY=0.172;entryDx=0;entryDy=0;entryPerimeter=0;" edge="1" parent="1" target="O5suZDPZrE7tWehPOrh1-4">
          <mxGeometry width="50" height="50" relative="1" as="geometry">
            <mxPoint x="180" y="330" as="sourcePoint" />
            <mxPoint x="230" y="280" as="targetPoint" />
          </mxGeometry>
        </mxCell>
        <mxCell id="O5suZDPZrE7tWehPOrh1-6" value="send POST (give info about what condition)" style="text;html=1;align=center;verticalAlign=middle;whiteSpace=wrap;rounded=0;rotation=-30;" vertex="1" parent="1">
          <mxGeometry x="134.87" y="220.66" width="242.63" height="30" as="geometry" />
        </mxCell>
        <mxCell id="O5suZDPZrE7tWehPOrh1-7" value="" style="endArrow=classic;html=1;rounded=0;exitX=1;exitY=0.617;exitDx=0;exitDy=0;exitPerimeter=0;" edge="1" parent="1" source="O5suZDPZrE7tWehPOrh1-3">
          <mxGeometry width="50" height="50" relative="1" as="geometry">
            <mxPoint x="400" y="470" as="sourcePoint" />
            <mxPoint x="360" y="470" as="targetPoint" />
          </mxGeometry>
        </mxCell>
        <mxCell id="O5suZDPZrE7tWehPOrh1-8" value="send GET (get what need to be on or off)" style="text;html=1;align=center;verticalAlign=middle;whiteSpace=wrap;rounded=0;rotation=40;" vertex="1" parent="1">
          <mxGeometry x="134.87" y="440" width="242.63" height="30" as="geometry" />
        </mxCell>
        <mxCell id="O5suZDPZrE7tWehPOrh1-10" value="" style="endArrow=classic;html=1;rounded=0;exitX=1;exitY=0.5;exitDx=0;exitDy=0;entryX=0.026;entryY=0.375;entryDx=0;entryDy=0;entryPerimeter=0;" edge="1" parent="1" source="O5suZDPZrE7tWehPOrh1-4" target="O5suZDPZrE7tWehPOrh1-2">
          <mxGeometry width="50" height="50" relative="1" as="geometry">
            <mxPoint x="510" y="320" as="sourcePoint" />
            <mxPoint x="560" y="270" as="targetPoint" />
          </mxGeometry>
        </mxCell>
        <mxCell id="O5suZDPZrE7tWehPOrh1-11" value="" style="endArrow=none;html=1;rounded=0;exitX=1;exitY=0.5;exitDx=0;exitDy=0;entryX=0.026;entryY=0.375;entryDx=0;entryDy=0;entryPerimeter=0;startArrow=classic;startFill=1;endFill=0;" edge="1" parent="1">
          <mxGeometry width="50" height="50" relative="1" as="geometry">
            <mxPoint x="482" y="390" as="sourcePoint" />
            <mxPoint x="690" y="390" as="targetPoint" />
          </mxGeometry>
        </mxCell>
        <mxCell id="O5suZDPZrE7tWehPOrh1-13" value="Save attr and login session" style="text;html=1;align=center;verticalAlign=middle;whiteSpace=wrap;rounded=0;" vertex="1" parent="1">
          <mxGeometry x="490" y="270" width="190" height="40" as="geometry" />
        </mxCell>
        <mxCell id="O5suZDPZrE7tWehPOrh1-14" value="Retrieve attr and login session" style="text;html=1;align=center;verticalAlign=middle;whiteSpace=wrap;rounded=0;" vertex="1" parent="1">
          <mxGeometry x="490" y="410" width="190" height="40" as="geometry" />
        </mxCell>
        <mxCell id="O5suZDPZrE7tWehPOrh1-15" value="" style="shape=process;whiteSpace=wrap;html=1;backgroundOutline=1;rotation=90;" vertex="1" parent="1">
          <mxGeometry x="600" y="640" width="120" height="60" as="geometry" />
        </mxCell>
        <mxCell id="O5suZDPZrE7tWehPOrh1-16" value="" style="endArrow=classic;html=1;rounded=0;exitX=0.25;exitY=1;exitDx=0;exitDy=0;" edge="1" parent="1" source="O5suZDPZrE7tWehPOrh1-15">
          <mxGeometry width="50" height="50" relative="1" as="geometry">
            <mxPoint x="420" y="530" as="sourcePoint" />
            <mxPoint x="470" y="480" as="targetPoint" />
          </mxGeometry>
        </mxCell>
        <mxCell id="O5suZDPZrE7tWehPOrh1-17" value="Some POST to control" style="text;html=1;align=center;verticalAlign=middle;whiteSpace=wrap;rounded=0;rotation=45;" vertex="1" parent="1">
          <mxGeometry x="470" y="520" width="190" height="40" as="geometry" />
        </mxCell>
        <mxCell id="O5suZDPZrE7tWehPOrh1-18" value="" style="endArrow=classic;html=1;rounded=0;exitX=0.427;exitY=0.993;exitDx=0;exitDy=0;exitPerimeter=0;entryX=0.647;entryY=1.012;entryDx=0;entryDy=0;entryPerimeter=0;" edge="1" parent="1" source="O5suZDPZrE7tWehPOrh1-4" target="O5suZDPZrE7tWehPOrh1-15">
          <mxGeometry width="50" height="50" relative="1" as="geometry">
            <mxPoint x="420" y="580" as="sourcePoint" />
            <mxPoint x="470" y="530" as="targetPoint" />
          </mxGeometry>
        </mxCell>
        <mxCell id="O5suZDPZrE7tWehPOrh1-19" value="Retrieve (GET) about lamp condition etc." style="text;html=1;align=center;verticalAlign=middle;whiteSpace=wrap;rounded=0;rotation=45;" vertex="1" parent="1">
          <mxGeometry x="390" y="570" width="190" height="40" as="geometry" />
        </mxCell>
      </root>
    </mxGraphModel>
  </diagram>
</mxfile>
